<?xml version="1.0" standalone="no"?>
<!DOCTYPE svg PUBLIC "-//W3C//DTD SVG 1.1//EN"
  "http://www.w3.org/Graphics/SVG/1.1/DTD/svg11.dtd">
<svg width="384mm" height="328.49999999999994mm" viewBox="-310 -244.49999999999994 384 328.49999999999994" xmlns="http://www.w3.org/2000/svg" version="1.1">
	<title>svgOutput</title>
	<desc>made with tinkercad</desc>
<path d="M -306 -127.99999999999997 L -305 -127.99999999999997 L -301 -127.99999999999997 L -262.1440124511719 -127.99999999999997 L -236 -127.99999999999997 L -227.0030059814453 -127.99999999999997 L -227.0030059814453 -72.9980010986328 L -221 -72.9980010986328 L -206 -72.9980010986328 L -196.60800170898438 -72.9980010986328 L -176 -72.9980010986328 L -161 -72.9980010986328 L -146 -72.9980010986328 L -139.9980010986328 -72.9980010986328 L -139.9980010986328 -127.99999999999997 L -131.07200622558594 -127.99999999999997 L -65.53600311279297 -127.99999999999997 L -61 -127.99999999999997 L -61 -117.99999999999997 L -65.53600311279297 -117.99999999999997 L -66 -117.99999999999997 L -66 -102.99999999999997 L -65.53600311279297 -102.99999999999997 L -61 -102.99999999999997 L -61 -87.99999999999999 L -65.53600311279297 -87.99999999999999 L -66 -87.99999999999999 L -66 -72.99999999999999 L -65.53600311279297 -72.99999999999999 L -61 -72.99999999999999 L -61 -65.53600311279295 L -61 -57.999999999999986 L -65.53600311279297 -57.999999999999986 L -66 -57.999999999999986 L -66 -50.499999999999986 L -66 -42.99999999999999 L -65.53600311279297 -42.99999999999999 L -61 -42.99999999999999 L -61 -32.99999999999999 L -65.53600311279297 -32.99999999999999 L -66 -32.99999999999999 L -86 -32.99999999999999 L -86 -37.99999999999999 L -101 -37.99999999999999 L -101 -32.99999999999999 L -116 -32.99999999999999 L -116 -37.99999999999999 L -131 -37.99999999999999 L -131 -32.99999999999999 L -131.07200622558594 -32.99999999999999 L -146 -32.99999999999999 L -146 -37.99999999999999 L -161 -37.99999999999999 L -161 -32.99999999999999 L -176 -32.99999999999999 L -176 -37.99999999999999 L -191 -37.99999999999999 L -191 -32.99999999999999 L -196.60800170898438 -32.99999999999999 L -206 -32.99999999999999 L -206 -37.99999999999999 L -221 -37.99999999999999 L -221 -32.99999999999999 L -236 -32.99999999999999 L -236 -37.99999999999999 L -251 -37.99999999999999 L -251 -32.99999999999999 L -262.1440124511719 -32.99999999999999 L -266 -32.99999999999999 L -266 -37.99999999999999 L -281 -37.99999999999999 L -281 -32.99999999999999 L -305 -32.99999999999999 L -306 -32.99999999999999 L -306 -42.99999999999999 L -305 -42.99999999999999 L -301 -42.99999999999999 L -301 -50.499999999999986 L -301 -57.999999999999986 L -305 -57.999999999999986 L -306 -57.999999999999986 L -306 -65.53600311279295 L -306 -72.99999999999999 L -305 -72.99999999999999 L -301 -72.99999999999999 L -301 -87.99999999999999 L -305 -87.99999999999999 L -306 -87.99999999999999 L -306 -102.99999999999997 L -305 -102.99999999999997 L -301 -102.99999999999997 L -301 -117.99999999999997 L -305 -117.99999999999997 L -306 -117.99999999999997 L -306 -127.99999999999997 M -60 -218.49999999999994 L -60 -203.49999999999994 L -65 -203.49999999999994 L -65 -196.60800170898432 L -65 -188.49999999999997 L -60 -188.49999999999997 L -60 -173.49999999999997 L -65 -173.49999999999997 L -65 -163.8399963378906 L -65 -158.49999999999997 L -60 -158.49999999999997 L -60 -148.49999999999997 L -65 -148.49999999999997 L -65.53600311279297 -148.49999999999997 L -85 -148.49999999999997 L -85 -153.49999999999997 L -100 -153.49999999999997 L -100 -148.49999999999997 L -115 -148.49999999999997 L -115 -153.49999999999997 L -130 -153.49999999999997 L -130 -148.49999999999997 L -131.07200622558594 -148.49999999999997 L -138.9980010986328 -148.49999999999997 L -145 -148.49999999999997 L -145 -153.49999999999997 L -160 -153.49999999999997 L -160 -148.49999999999997 L -175 -148.49999999999997 L -175 -153.49999999999997 L -190 -153.49999999999997 L -190 -148.49999999999997 L -196.60800170898438 -148.49999999999997 L -205 -148.49999999999997 L -205 -153.49999999999997 L -220 -153.49999999999997 L -220 -148.49999999999997 L -226.0030059814453 -148.49999999999997 L -235 -148.49999999999997 L -235 -153.49999999999997 L -250 -153.49999999999997 L -250 -148.49999999999997 L -262.1440124511719 -148.49999999999997 L -265 -148.49999999999997 L -265 -153.49999999999997 L -280 -153.49999999999997 L -280 -148.49999999999997 L -305 -148.49999999999997 L -305 -153.49999999999997 L -305 -158.49999999999997 L -300 -158.49999999999997 L -300 -173.49999999999997 L -305 -173.49999999999997 L -305 -188.49999999999997 L -300 -188.49999999999997 L -300 -196.60800170898432 L -300 -203.49999999999994 L -305 -203.49999999999994 L -305 -218.49999999999994 L -300 -218.49999999999994 L -300 -233.49999999999994 L -305 -233.49999999999994 L -305 -243.49999999999994 L -300 -243.49999999999994 L -262.1440124511719 -243.49999999999994 L -235 -243.49999999999994 L -226.0030059814453 -243.49999999999994 L -226.0030059814453 -188.49800109863278 L -220 -188.49800109863278 L -205 -188.49800109863278 L -196.60800170898438 -188.49800109863278 L -175 -188.49800109863278 L -160 -188.49800109863278 L -145 -188.49800109863278 L -138.9980010986328 -188.49800109863278 L -138.9980010986328 -243.49999999999994 L -131.07200622558594 -243.49999999999994 L -130 -243.49999999999994 L -115 -243.49999999999994 L -100 -243.49999999999994 L -85 -243.49999999999994 L -65.53600311279297 -243.49999999999994 L -60 -243.49999999999994 L -60 -233.49999999999994 L -65 -233.49999999999994 L -65 -218.49999999999994 L -60 -218.49999999999994 M -58 -12.999999999999996 L -58 -11.999999999999996 L -58 -2.999999999999999 L -53 -2.999999999999999 L -53 1.1102230246251565e-16 L -53 11.999999999999996 L -58 11.999999999999996 L -58 26.999999999999993 L -53 26.999999999999993 L -53 41.99999999999999 L -58 41.99999999999999 L -58 56.999999999999986 L -53 56.999999999999986 L -53 59.999999999999986 L -53 64.99999999999999 L -53 65.53600311279295 L -53 71.99999999999999 L -58 71.99999999999999 L -58 81.99999999999999 L -65.53600311279297 81.99999999999999 L -75.5 81.99999999999999 L -75.5 76.99999999999999 L -90.5 76.99999999999999 L -90.5 81.99999999999999 L -105.5 81.99999999999999 L -105.5 76.99999999999999 L -120.5 76.99999999999999 L -120.5 81.99999999999999 L -131.07200622558594 81.99999999999999 L -135.5 81.99999999999999 L -135.5 76.99999999999999 L -146 76.99999999999999 L -150.5 76.99999999999999 L -150.5 81.99999999999999 L -161 81.99999999999999 L -163.83999633789062 81.99999999999999 L -168 81.99999999999999 L -168 81.9199981689453 L -168 71.99999999999999 L -173 71.99999999999999 L -173 65.99999999999999 L -173 65.53600311279295 L -173 60.999999999999986 L -173 56.999999999999986 L -168 56.999999999999986 L -168 42.99999999999999 L -168 41.99999999999999 L -173 41.99999999999999 L -173 32.76800155639648 L -173 26.999999999999993 L -168 26.999999999999993 L -168 12.999999999999996 L -168 11.999999999999996 L -173 11.999999999999996 L -173 1.1102230246251565e-16 L -173 -2.999999999999999 L -168 -2.999999999999999 L -168 -11.999999999999996 L -168 -12.999999999999996 L -131.07200622558594 -12.999999999999996 L -65.53600311279297 -12.999999999999996 L -58 -12.999999999999996 M -194 82.99999999999999 L -196.60800170898438 82.99999999999999 L -211.5 82.99999999999999 L -211.5 77.99999999999999 L -226.5 77.99999999999999 L -226.5 82.99999999999999 L -241.5 82.99999999999999 L -241.5 77.99999999999999 L -256.5 77.99999999999999 L -256.5 82.99999999999999 L -262.1440124511719 82.99999999999999 L -271.5 82.99999999999999 L -271.5 77.99999999999999 L -286.5 77.99999999999999 L -286.5 82.99999999999999 L -294.9119873046875 82.99999999999999 L -304 82.99999999999999 L -304 81.9199981689453 L -304 72.99999999999999 L -309 72.99999999999999 L -309 65.53600311279295 L -309 57.999999999999986 L -304 57.999999999999986 L -304 42.99999999999999 L -309 42.99999999999999 L -309 32.76800155639648 L -309 27.999999999999993 L -304 27.999999999999993 L -304 12.999999999999996 L -309 12.999999999999996 L -309 1.1102230246251565e-16 L -309 -1.9999999999999996 L -304 -1.9999999999999996 L -304 -11.999999999999996 L -262.1440124511719 -11.999999999999996 L -194 -11.999999999999996 L -194 -1.9999999999999996 L -189 -1.9999999999999996 L -189 1.1102230246251565e-16 L -189 12.999999999999996 L -194 12.999999999999996 L -194 27.999999999999993 L -189 27.999999999999993 L -189 32.76800155639648 L -189 42.99999999999999 L -194 42.99999999999999 L -194 57.999999999999986 L -189 57.999999999999986 L -189 60.999999999999986 L -189 65.53600311279295 L -189 65.99999999999999 L -189 72.99999999999999 L -194 72.99999999999999 L -194 82.99999999999999 M 73 -135.99999999999997 L 73 -131.0720062255859 L 73 -120.99999999999997 L 68 -120.99999999999997 L 68 -105.99999999999997 L 73 -105.99999999999997 L 73 -90.99999999999999 L 68 -90.99999999999999 L 68 -75.99999999999999 L 73 -75.99999999999999 L 73 -65.53600311279295 L 73 -60.999999999999986 L 68 -60.999999999999986 L 68 -45.99999999999999 L 73 -45.99999999999999 L 73 -30.999999999999993 L 68 -30.999999999999993 L 68 -15.999999999999996 L 73 -15.999999999999996 L 73 -0.9999999999999997 L 68 -0.9999999999999997 L 68 1.1102230246251565e-16 L 68 13.999999999999996 L 73 13.999999999999996 L 73 28.999999999999993 L 68 28.999999999999993 L 68 48.999999999999986 L 50.5 48.999999999999986 L 50.5 53.999999999999986 L 35.5 53.999999999999986 L 35.5 48.999999999999986 L 20.5 48.999999999999986 L 20.5 53.999999999999986 L 5.5 53.999999999999986 L 5.5 48.999999999999986 L 0 48.999999999999986 L -9.5 48.999999999999986 L -9.5 53.999999999999986 L -24.5 53.999999999999986 L -24.5 48.999999999999986 L -42 48.999999999999986 L -42 28.999999999999993 L -47 28.999999999999993 L -47 13.999999999999996 L -42 13.999999999999996 L -42 1.1102230246251565e-16 L -42 -0.9999999999999997 L -47 -0.9999999999999997 L -47 -11.999999999999996 L -47 -12.999999999999996 L -47 -15.999999999999996 L -42 -15.999999999999996 L -42 -30.999999999999993 L -47 -30.999999999999993 L -47 -32.76800155639648 L -47 -32.99999999999999 L -47 -45.99999999999999 L -42 -45.99999999999999 L -42 -60.999999999999986 L -47 -60.999999999999986 L -47 -65.53600311279295 L -47 -75.99999999999999 L -42 -75.99999999999999 L -42 -90.99999999999999 L -47 -90.99999999999999 L -47 -105.99999999999997 L -42 -105.99999999999997 L -42 -120.99999999999997 L -47 -120.99999999999997 L -47 -127.99999999999997 L -47 -131.0720062255859 L -47 -135.99999999999997 L -42 -135.99999999999997 L -42 -150.99999999999997 L -47 -150.99999999999997 L -47 -163.8399963378906 L -47 -165.99999999999997 L -42 -165.99999999999997 L -42 -185.99999999999997 L -24.5 -185.99999999999997 L -24.5 -190.99999999999997 L -9.5 -190.99999999999997 L -9.5 -185.99999999999997 L 0 -185.99999999999997 L 5.5 -185.99999999999997 L 5.5 -190.99999999999997 L 20.5 -190.99999999999997 L 20.5 -185.99999999999997 L 32.768001556396484 -185.99999999999997 L 35.5 -185.99999999999997 L 35.5 -190.99999999999997 L 50.5 -190.99999999999997 L 50.5 -185.99999999999997 L 65.53600311279297 -185.99999999999997 L 68 -185.99999999999997 L 68 -165.99999999999997 L 73 -165.99999999999997 L 73 -150.99999999999997 L 68 -150.99999999999997 L 68 -135.99999999999997 L 73 -135.99999999999997 z" fill="none" stroke="rgb(255,0,0)" stroke-width="0.001mm" />
</svg>