<?xml version="1.0" standalone="no"?>
<!DOCTYPE svg PUBLIC "-//W3C//DTD SVG 1.1//EN"
  "http://www.w3.org/Graphics/SVG/1.1/DTD/svg11.dtd">
<svg width="220.5mm" height="141.99999999999997mm" viewBox="18.5 -105.99999999999997 220.5 141.99999999999997" xmlns="http://www.w3.org/2000/svg" version="1.1">
	<title>svgOutput</title>
	<desc>made with tinkercad</desc>
<path d="M 128 34.99999999999999 L 128 31.999999999999993 L 128 24.999999999999993 L 128.00100708007812 24.999999999999993 L 128.00100708007812 14.999999999999996 L 128.00100708007812 9.999999999999998 L 128.00100708007812 7.999999999999998 L 128.00100708007812 3.749999999999999 L 128.00100708007812 1.1102230246251565e-16 L 128.00100708007812 -8.749999999999998 L 128.00100708007812 -9.249999999999998 L 128.00100708007812 -29.999999999999993 L 131.07200622558594 -29.999999999999993 L 139.24899291992188 -29.999999999999993 L 139.24899291992188 -24.999999999999993 L 151.74899291992188 -24.999999999999993 L 151.74899291992188 -29.999999999999993 L 164.24899291992188 -29.999999999999993 L 164.24899291992188 -24.999999999999993 L 176.74899291992188 -24.999999999999993 L 176.74899291992188 -29.999999999999993 L 189.24899291992188 -29.999999999999993 L 189.24899291992188 -24.999999999999993 L 196.60800170898438 -24.999999999999993 L 201.74899291992188 -24.999999999999993 L 201.74899291992188 -29.999999999999993 L 214.24899291992188 -29.999999999999993 L 214.24899291992188 -24.999999999999993 L 226.74899291992188 -24.999999999999993 L 226.74899291992188 -29.999999999999993 L 229.37600708007812 -29.999999999999993 L 237.99600219726562 -29.999999999999993 L 237.99600219726562 -24.999999999999993 L 237.99600219726562 -21.249999999999996 L 237.99600219726562 -8.749999999999998 L 237.99600219726562 1.1102230246251565e-16 L 237.99600219726562 3.749999999999999 L 237.99600219726562 14.999999999999996 L 237.99600219726562 16.249999999999996 L 237.99600219726562 24.999999999999993 L 237.99899291992188 24.999999999999993 L 238 24.999999999999993 L 238 31.999999999999993 L 238 34.99999999999999 L 128 34.99999999999999 M 237.4980010986328 -103.99999999999997 L 237.4980010986328 -98.99999999999997 L 237.4980010986328 -98.30400085449216 L 237.4980010986328 -95.24999999999999 L 237.4980010986328 -87.99999999999999 L 237.4980010986328 -82.74999999999999 L 237.4980010986328 -70.24999999999999 L 237.4980010986328 -65.53600311279295 L 237.4980010986328 -57.749999999999986 L 237.4980010986328 -48.999999999999986 L 237.5 -48.999999999999986 L 237.50100708007812 -48.999999999999986 L 237.50100708007812 -41.99999999999999 L 237.50100708007812 -38.99999999999999 L 196.60800170898438 -38.99999999999999 L 131.07200622558594 -38.99999999999999 L 127.5009994506836 -38.99999999999999 L 127.5009994506836 -41.99999999999999 L 127.5009994506836 -48.999999999999986 L 127.50299835205078 -48.999999999999986 L 127.50299835205078 -49.15200042724608 L 127.50299835205078 -51.249999999999986 L 127.50299835205078 -65.53600311279295 L 127.50299835205078 -70.24999999999999 L 127.50299835205078 -71.24999999999999 L 127.50299835205078 -76.24999999999999 L 127.50299835205078 -82.74999999999999 L 127.50299835205078 -98.30400085449216 L 127.50299835205078 -103.99999999999997 L 131.07200622558594 -103.99999999999997 L 138.75 -103.99999999999997 L 138.75 -98.99999999999997 L 151.25 -98.99999999999997 L 151.25 -103.99999999999997 L 163.75 -103.99999999999997 L 163.75 -98.99999999999997 L 176.25 -98.99999999999997 L 176.25 -103.99999999999997 L 188.75 -103.99999999999997 L 188.75 -98.99999999999997 L 196.60800170898438 -98.99999999999997 L 201.25 -98.99999999999997 L 201.25 -103.99999999999997 L 213.75 -103.99999999999997 L 213.75 -98.99999999999997 L 226.25 -98.99999999999997 L 226.25 -103.99999999999997 L 229.37600708007812 -103.99999999999997 L 237.4980010986328 -103.99999999999997 M 99.5 -104.99999999999997 L 99.5 -99.99999999999997 L 99.5 -96.24999999999997 L 99.5 -88.74999999999999 L 104.5 -88.74999999999999 L 104.5 -76.24999999999999 L 99.5 -76.24999999999999 L 99.5 -71.24999999999999 L 99.5 -65.53600311279295 L 99.5 -63.749999999999986 L 104.5 -63.749999999999986 L 104.5 -51.249999999999986 L 99.5 -51.249999999999986 L 99.5 -49.15200042724608 L 99.5 -38.74999999999999 L 104.5 -38.74999999999999 L 104.5 -32.76800155639648 L 104.5 -26.249999999999993 L 99.5 -26.249999999999993 L 99.5 -13.749999999999996 L 104.5 -13.749999999999996 L 104.5 -9.249999999999998 L 104.5 -1.2499999999999996 L 99.5 -1.2499999999999996 L 99.5 1.1102230246251565e-16 L 99.5 7.999999999999998 L 99.5 9.999999999999998 L 99.5 14.999999999999996 L 98.30400085449219 14.999999999999996 L 93.25 14.999999999999996 L 80.75 14.999999999999996 L 68.25 14.999999999999996 L 65.53600311279297 14.999999999999996 L 55.75 14.999999999999996 L 43.25 14.999999999999996 L 34.999000549316406 14.999999999999996 L 30.75 14.999999999999996 L 24.5 14.999999999999996 L 24.5 9.999999999999998 L 24.5 7.999999999999998 L 24.5 1.1102230246251565e-16 L 24.5 -1.2499999999999996 L 19.5 -1.2499999999999996 L 19.5 -13.749999999999996 L 24.5 -13.749999999999996 L 24.5 -26.249999999999993 L 19.5 -26.249999999999993 L 19.5 -38.74999999999999 L 24.5 -38.74999999999999 L 24.5 -51.249999999999986 L 19.5 -51.249999999999986 L 19.5 -63.749999999999986 L 24.5 -63.749999999999986 L 24.5 -65.53600311279295 L 24.5 -76.24999999999999 L 19.5 -76.24999999999999 L 19.5 -88.74999999999999 L 24.5 -88.74999999999999 L 24.5 -99.99999999999997 L 24.5 -104.99999999999997 L 30.75 -104.99999999999997 L 43.25 -104.99999999999997 L 55.75 -104.99999999999997 L 65.53600311279297 -104.99999999999997 L 68.25 -104.99999999999997 L 80.75 -104.99999999999997 L 93.25 -104.99999999999997 L 98.30400085449219 -104.99999999999997 L 99.5 -104.99999999999997 z" fill="none" stroke="rgb(255,0,0)" stroke-width="0.001mm" />
</svg>