<?xml version="1.0" standalone="no"?>
<!DOCTYPE svg PUBLIC "-//W3C//DTD SVG 1.1//EN"
  "http://www.w3.org/Graphics/SVG/1.1/DTD/svg11.dtd">
<svg width="602.0030059814453mm" height="355.99999999999994mm" viewBox="-178.0030059814453 -363.99999999999994 602.0030059814453 355.99999999999994" xmlns="http://www.w3.org/2000/svg" version="1.1">
	<title>svgOutput</title>
	<desc>made with tinkercad</desc>
<path d="M 423 -272.4049987792968 L 418 -272.4049987792968 L 418 -265.99999999999994 L 404.114990234375 -265.99999999999994 L 404.114990234375 -270.99999999999994 L 393.21600341796875 -270.99999999999994 L 391.92498779296875 -270.99999999999994 L 391.92498779296875 -265.99999999999994 L 379.7349853515625 -265.99999999999994 L 379.7349853515625 -270.99999999999994 L 367.5450134277344 -270.99999999999994 L 367.5450134277344 -265.99999999999994 L 360.447998046875 -265.99999999999994 L 355.3550109863281 -265.99999999999994 L 355.3550109863281 -270.99999999999994 L 343.1650085449219 -270.99999999999994 L 343.1650085449219 -265.99999999999994 L 330.9750061035156 -265.99999999999994 L 330.9750061035156 -270.99999999999994 L 327.67999267578125 -270.99999999999994 L 318.7850036621094 -270.99999999999994 L 318.7850036621094 -265.99999999999994 L 306.5950012207031 -265.99999999999994 L 306.5950012207031 -270.99999999999994 L 294.9119873046875 -270.99999999999994 L 294.4049987792969 -270.99999999999994 L 294.4049987792969 -265.99999999999994 L 282.2149963378906 -265.99999999999994 L 282.2149963378906 -270.99999999999994 L 270.0249938964844 -270.99999999999994 L 270.0249938964844 -265.99999999999994 L 262.1440124511719 -265.99999999999994 L 257.8349914550781 -265.99999999999994 L 257.8349914550781 -270.99999999999994 L 245.64500427246094 -270.99999999999994 L 245.64500427246094 -265.99999999999994 L 233.4550018310547 -265.99999999999994 L 233.4550018310547 -270.99999999999994 L 229.37600708007812 -270.99999999999994 L 221.26499938964844 -270.99999999999994 L 221.26499938964844 -265.99999999999994 L 209.0749969482422 -265.99999999999994 L 209.0749969482422 -270.99999999999994 L 196.88499450683594 -270.99999999999994 L 196.88499450683594 -265.99999999999994 L 196.60800170898438 -265.99999999999994 L 183 -265.99999999999994 L 183 -272.4049987792968 L 178 -272.4049987792968 L 178 -280.9979858398437 L 183 -280.9979858398437 L 196.60800170898438 -280.9979858398437 L 209.0749969482422 -280.9979858398437 L 221.26499938964844 -280.9979858398437 L 229.37600708007812 -280.9979858398437 L 257.8349914550781 -280.9979858398437 L 262.1440124511719 -280.9979858398437 L 282.2149963378906 -280.9979858398437 L 294.4049987792969 -280.9979858398437 L 294.9119873046875 -280.9979858398437 L 306.5950012207031 -280.9979858398437 L 318.7850036621094 -280.9979858398437 L 327.67999267578125 -280.9979858398437 L 355.3550109863281 -280.9979858398437 L 360.447998046875 -280.9979858398437 L 379.7349853515625 -280.9979858398437 L 391.92498779296875 -280.9979858398437 L 393.21600341796875 -280.9979858398437 L 404.114990234375 -280.9979858398437 L 418 -280.9979858398437 L 423 -280.9979858398437 L 423 -272.4049987792968 M 423 -297.4049987792968 L 418 -297.4049987792968 L 418 -290.99999999999994 L 404.114990234375 -290.99999999999994 L 404.114990234375 -295.99999999999994 L 393.21600341796875 -295.99999999999994 L 391.92498779296875 -295.99999999999994 L 391.92498779296875 -290.99999999999994 L 379.7349853515625 -290.99999999999994 L 379.7349853515625 -295.99999999999994 L 367.5450134277344 -295.99999999999994 L 367.5450134277344 -290.99999999999994 L 360.447998046875 -290.99999999999994 L 355.3550109863281 -290.99999999999994 L 355.3550109863281 -295.99999999999994 L 343.1650085449219 -295.99999999999994 L 343.1650085449219 -290.99999999999994 L 330.9750061035156 -290.99999999999994 L 330.9750061035156 -295.99999999999994 L 327.67999267578125 -295.99999999999994 L 318.7850036621094 -295.99999999999994 L 318.7850036621094 -290.99999999999994 L 306.5950012207031 -290.99999999999994 L 306.5950012207031 -295.99999999999994 L 294.9119873046875 -295.99999999999994 L 294.4049987792969 -295.99999999999994 L 294.4049987792969 -290.99999999999994 L 282.2149963378906 -290.99999999999994 L 282.2149963378906 -295.99999999999994 L 270.0249938964844 -295.99999999999994 L 270.0249938964844 -290.99999999999994 L 262.1440124511719 -290.99999999999994 L 257.8349914550781 -290.99999999999994 L 257.8349914550781 -295.99999999999994 L 245.64500427246094 -295.99999999999994 L 245.64500427246094 -290.99999999999994 L 233.4550018310547 -290.99999999999994 L 233.4550018310547 -295.99999999999994 L 229.37600708007812 -295.99999999999994 L 221.26499938964844 -295.99999999999994 L 221.26499938964844 -290.99999999999994 L 209.0749969482422 -290.99999999999994 L 209.0749969482422 -295.99999999999994 L 196.88499450683594 -295.99999999999994 L 196.88499450683594 -290.99999999999994 L 196.60800170898438 -290.99999999999994 L 183 -290.99999999999994 L 183 -294.91198730468744 L 183 -297.4049987792968 L 178 -297.4049987792968 L 178 -305.9979858398437 L 183 -305.9979858398437 L 196.60800170898438 -305.9979858398437 L 209.0749969482422 -305.9979858398437 L 221.26499938964844 -305.9979858398437 L 229.37600708007812 -305.9979858398437 L 233.4550018310547 -305.9979858398437 L 245.64500427246094 -305.9979858398437 L 257.8349914550781 -305.9979858398437 L 262.1440124511719 -305.9979858398437 L 282.2149963378906 -305.9979858398437 L 294.4049987792969 -305.9979858398437 L 294.9119873046875 -305.9979858398437 L 306.5950012207031 -305.9979858398437 L 318.7850036621094 -305.9979858398437 L 327.67999267578125 -305.9979858398437 L 330.9750061035156 -305.9979858398437 L 343.1650085449219 -305.9979858398437 L 355.3550109863281 -305.9979858398437 L 360.447998046875 -305.9979858398437 L 367.5450134277344 -305.9979858398437 L 379.7349853515625 -305.9979858398437 L 391.92498779296875 -305.9979858398437 L 393.21600341796875 -305.9979858398437 L 404.114990234375 -305.9979858398437 L 418 -305.9979858398437 L 423 -305.9979858398437 L 423 -297.4049987792968 M 423 -318.99999999999994 L 418 -318.99999999999994 L 404.114990234375 -318.99999999999994 L 404.114990234375 -320.0020141601562 L 404.114990234375 -323.99999999999994 L 393.21600341796875 -323.99999999999994 L 391.92498779296875 -323.99999999999994 L 391.92498779296875 -320.0020141601562 L 391.92498779296875 -318.99999999999994 L 379.7349853515625 -318.99999999999994 L 379.7349853515625 -320.0020141601562 L 379.7349853515625 -323.99999999999994 L 367.5450134277344 -323.99999999999994 L 367.5450134277344 -320.0020141601562 L 367.5450134277344 -318.99999999999994 L 360.447998046875 -318.99999999999994 L 355.3550109863281 -318.99999999999994 L 355.3550109863281 -320.0020141601562 L 355.3550109863281 -323.99999999999994 L 343.1650085449219 -323.99999999999994 L 343.1650085449219 -320.0020141601562 L 343.1650085449219 -318.99999999999994 L 330.9750061035156 -318.99999999999994 L 330.9750061035156 -320.0020141601562 L 330.9750061035156 -323.99999999999994 L 327.67999267578125 -323.99999999999994 L 318.7850036621094 -323.99999999999994 L 318.7850036621094 -320.0020141601562 L 318.7850036621094 -318.99999999999994 L 306.5950012207031 -318.99999999999994 L 306.5950012207031 -320.0020141601562 L 306.5950012207031 -323.99999999999994 L 294.9119873046875 -323.99999999999994 L 294.4049987792969 -323.99999999999994 L 294.4049987792969 -320.0020141601562 L 294.4049987792969 -318.99999999999994 L 282.2149963378906 -318.99999999999994 L 282.2149963378906 -320.0020141601562 L 282.2149963378906 -323.99999999999994 L 270.0249938964844 -323.99999999999994 L 270.0249938964844 -320.0020141601562 L 270.0249938964844 -318.99999999999994 L 262.1440124511719 -318.99999999999994 L 257.8349914550781 -318.99999999999994 L 257.8349914550781 -320.0020141601562 L 257.8349914550781 -323.99999999999994 L 245.64500427246094 -323.99999999999994 L 245.64500427246094 -320.0020141601562 L 245.64500427246094 -318.99999999999994 L 233.4550018310547 -318.99999999999994 L 233.4550018310547 -320.0020141601562 L 233.4550018310547 -323.99999999999994 L 229.37600708007812 -323.99999999999994 L 221.26499938964844 -323.99999999999994 L 221.26499938964844 -320.0020141601562 L 221.26499938964844 -318.99999999999994 L 209.0749969482422 -318.99999999999994 L 209.0749969482422 -320.0020141601562 L 209.0749969482422 -323.99999999999994 L 196.88499450683594 -323.99999999999994 L 196.88499450683594 -320.0020141601562 L 196.88499450683594 -318.99999999999994 L 196.60800170898438 -318.99999999999994 L 183 -318.99999999999994 L 178 -318.99999999999994 L 178 -320.0020141601562 L 178 -325.4049987792968 L 183 -325.4049987792968 L 183 -326.40701293945307 L 183 -327.6799926757812 L 183 -333.9979858398437 L 196.60800170898438 -333.9979858398437 L 221.26499938964844 -333.9979858398437 L 233.4550018310547 -333.9979858398437 L 257.8349914550781 -333.9979858398437 L 262.1440124511719 -333.9979858398437 L 294.4049987792969 -333.9979858398437 L 306.5950012207031 -333.9979858398437 L 327.67999267578125 -333.9979858398437 L 330.9750061035156 -333.9979858398437 L 355.3550109863281 -333.9979858398437 L 393.21600341796875 -333.9979858398437 L 418 -333.9979858398437 L 418 -327.6799926757812 L 418 -325.4049987792968 L 423 -325.4049987792968 L 423 -320.0020141601562 L 423 -318.99999999999994 M 423 -348.0020141601562 L 418 -348.0020141601562 L 404.114990234375 -348.0020141601562 L 404.114990234375 -353.0020141601562 L 393.21600341796875 -353.0020141601562 L 391.92498779296875 -353.0020141601562 L 391.92498779296875 -348.0020141601562 L 379.7349853515625 -348.0020141601562 L 379.7349853515625 -353.0020141601562 L 367.5450134277344 -353.0020141601562 L 367.5450134277344 -348.0020141601562 L 355.3550109863281 -348.0020141601562 L 355.3550109863281 -353.0020141601562 L 343.1650085449219 -353.0020141601562 L 343.1650085449219 -348.0020141601562 L 330.9750061035156 -348.0020141601562 L 330.9750061035156 -353.0020141601562 L 327.67999267578125 -353.0020141601562 L 318.7850036621094 -353.0020141601562 L 318.7850036621094 -348.0020141601562 L 306.5950012207031 -348.0020141601562 L 306.5950012207031 -353.0020141601562 L 294.4049987792969 -353.0020141601562 L 294.4049987792969 -348.0020141601562 L 282.2149963378906 -348.0020141601562 L 282.2149963378906 -353.0020141601562 L 270.0249938964844 -353.0020141601562 L 270.0249938964844 -348.0020141601562 L 262.1440124511719 -348.0020141601562 L 257.8349914550781 -348.0020141601562 L 257.8349914550781 -353.0020141601562 L 245.64500427246094 -353.0020141601562 L 245.64500427246094 -348.0020141601562 L 233.4550018310547 -348.0020141601562 L 233.4550018310547 -353.0020141601562 L 221.26499938964844 -353.0020141601562 L 221.26499938964844 -348.0020141601562 L 209.0749969482422 -348.0020141601562 L 209.0749969482422 -353.0020141601562 L 196.88499450683594 -353.0020141601562 L 196.88499450683594 -348.0020141601562 L 196.60800170898438 -348.0020141601562 L 183 -348.0020141601562 L 178 -348.0020141601562 L 178 -354.40701293945307 L 183 -354.40701293945307 L 183 -362.99999999999994 L 196.60800170898438 -362.99999999999994 L 233.4550018310547 -362.99999999999994 L 245.64500427246094 -362.99999999999994 L 257.8349914550781 -362.99999999999994 L 262.1440124511719 -362.99999999999994 L 306.5950012207031 -362.99999999999994 L 318.7850036621094 -362.99999999999994 L 327.67999267578125 -362.99999999999994 L 330.9750061035156 -362.99999999999994 L 343.1650085449219 -362.99999999999994 L 355.3550109863281 -362.99999999999994 L 367.5450134277344 -362.99999999999994 L 379.7349853515625 -362.99999999999994 L 393.21600341796875 -362.99999999999994 L 418 -362.99999999999994 L 418 -360.44799804687494 L 418 -354.40701293945307 L 423 -354.40701293945307 L 423 -348.0020141601562 M -139.5030059814453 -271.99999999999994 L -139.5030059814453 -266.99999999999994 L -131.07200622558594 -266.99999999999994 L -131.0030059814453 -266.99999999999994 L -129.5030059814453 -266.99999999999994 L -129.5030059814453 -271.99999999999994 L -119.50299835205078 -271.99999999999994 L -119.50299835205078 -266.99999999999994 L -109.50299835205078 -266.99999999999994 L -109.50299835205078 -271.99999999999994 L -99.50299835205078 -271.99999999999994 L -99.50299835205078 -266.99999999999994 L -97.00599670410156 -266.99999999999994 L -97.00599670410156 -264.49999999999994 L -97.00599670410156 -262.1440124511718 L -97.00599670410156 -256.99999999999994 L -97.00599670410156 -253.99999999999994 L -97.00599670410156 -246.99999999999994 L -97.00599670410156 -244.49999999999994 L -97.00599670410156 -236.99999999999994 L -97.00599670410156 -229.37600708007807 L -97.00599670410156 -226.99999999999994 L -97.00599670410156 -216.99999999999994 L -97.00599670410156 -216.49999999999994 L -97.00599670410156 -212.9920043945312 L -97.00599670410156 -206.99999999999994 L -97.00599670410156 -196.99999999999994 L -97.00599670410156 -196.60800170898432 L -97.00599670410156 -193.99999999999994 L -97.00599670410156 -164.99999999999997 L -97.00599670410156 -156.99999999999997 L -98.30400085449219 -156.99999999999997 L -99.50299835205078 -156.99999999999997 L -99.50299835205078 -151.99999999999997 L -109.50299835205078 -151.99999999999997 L -109.50299835205078 -156.99999999999997 L -119.50299835205078 -156.99999999999997 L -119.50299835205078 -151.99999999999997 L -129.5030059814453 -151.99999999999997 L -129.5030059814453 -156.99999999999997 L -131.07200622558594 -156.99999999999997 L -139.5030059814453 -156.99999999999997 L -139.5030059814453 -151.99999999999997 L -149.5030059814453 -151.99999999999997 L -149.5030059814453 -156.99999999999997 L -159.5030059814453 -156.99999999999997 L -159.5030059814453 -151.99999999999997 L -168.9969940185547 -151.99999999999997 L -169.5030059814453 -151.99999999999997 L -169.5030059814453 -156.99999999999997 L -172.0030059814453 -156.99999999999997 L -172.0030059814453 -166.99999999999997 L -177.0030059814453 -166.99999999999997 L -177.0030059814453 -176.99999999999997 L -172.0030059814453 -176.99999999999997 L -172.0030059814453 -186.99999999999997 L -177.0030059814453 -186.99999999999997 L -177.0030059814453 -196.60800170898432 L -177.0030059814453 -196.99999999999994 L -172.0030059814453 -196.99999999999994 L -172.0030059814453 -206.99999999999994 L -177.0030059814453 -206.99999999999994 L -177.0030059814453 -216.99999999999994 L -172.0030059814453 -216.99999999999994 L -172.0030059814453 -226.99999999999994 L -177.0030059814453 -226.99999999999994 L -177.0030059814453 -236.99999999999994 L -172.0030059814453 -236.99999999999994 L -172.0030059814453 -246.99999999999994 L -177.0030059814453 -246.99999999999994 L -177.0030059814453 -253.99999999999994 L -177.0030059814453 -256.99999999999994 L -172.0030059814453 -256.99999999999994 L -172.0030059814453 -262.1440124511718 L -172.0030059814453 -266.99999999999994 L -169.5030059814453 -266.99999999999994 L -169.5030059814453 -271.99999999999994 L -159.5030059814453 -271.99999999999994 L -159.5030059814453 -266.99999999999994 L -149.5030059814453 -266.99999999999994 L -149.5030059814453 -271.99999999999994 L -139.5030059814453 -271.99999999999994 M 147.4969940185547 -265.99999999999994 L 147.4969940185547 -262.1440124511718 L 147.4969940185547 -260.99999999999994 L 157.4969940185547 -260.99999999999994 L 157.4969940185547 -262.1440124511718 L 157.4969940185547 -265.99999999999994 L 159.9969940185547 -265.99999999999994 L 164.9969940185547 -265.99999999999994 L 164.9969940185547 -262.1440124511718 L 164.9969940185547 -260.99999999999994 L 164.9969940185547 -258.49999999999994 L 159.9969940185547 -258.49999999999994 L 159.9969940185547 -253.99999999999994 L 159.9969940185547 -248.49999999999994 L 164.9969940185547 -248.49999999999994 L 164.9969940185547 -238.49999999999994 L 159.9969940185547 -238.49999999999994 L 159.9969940185547 -235.115005493164 L 159.9969940185547 -229.37600708007807 L 159.9969940185547 -228.49999999999994 L 164.9969940185547 -228.49999999999994 L 164.9969940185547 -224.49999999999994 L 164.9969940185547 -220.99999999999994 L 159.9969940185547 -220.99999999999994 L 147.4969940185547 -220.99999999999994 L 137.4969940185547 -220.99999999999994 L 131.07200622558594 -220.99999999999994 L 107.49700164794922 -220.99999999999994 L 98.30400085449219 -220.99999999999994 L 84.99700164794922 -220.99999999999994 L 79.99700164794922 -220.99999999999994 L 79.99700164794922 -224.49999999999994 L 79.99700164794922 -228.49999999999994 L 84.99700164794922 -228.49999999999994 L 84.99700164794922 -229.37600708007807 L 84.99700164794922 -238.49999999999994 L 79.99700164794922 -238.49999999999994 L 79.99700164794922 -245.75999450683588 L 79.99700164794922 -248.49999999999994 L 84.99700164794922 -248.49999999999994 L 84.99700164794922 -253.99999999999994 L 84.99700164794922 -258.49999999999994 L 79.99700164794922 -258.49999999999994 L 79.99700164794922 -262.1440124511718 L 79.99700164794922 -265.99999999999994 L 87.49700164794922 -265.99999999999994 L 87.49700164794922 -262.1440124511718 L 87.49700164794922 -260.99999999999994 L 97.49700164794922 -260.99999999999994 L 97.49700164794922 -262.1440124511718 L 97.49700164794922 -265.99999999999994 L 98.30400085449219 -265.99999999999994 L 107.49700164794922 -265.99999999999994 L 107.49700164794922 -262.1440124511718 L 107.49700164794922 -260.99999999999994 L 117.49700164794922 -260.99999999999994 L 117.49700164794922 -262.1440124511718 L 117.49700164794922 -265.99999999999994 L 127.49700164794922 -265.99999999999994 L 127.49700164794922 -262.1440124511718 L 127.49700164794922 -260.99999999999994 L 131.07200622558594 -260.99999999999994 L 137.4969940185547 -260.99999999999994 L 137.4969940185547 -262.1440124511718 L 137.4969940185547 -265.99999999999994 L 147.4969940185547 -265.99999999999994 M 49.99700164794922 -265.99999999999994 L 49.99700164794922 -262.1440124511718 L 49.99700164794922 -260.99999999999994 L 49.99700164794922 -258.49999999999994 L 54.99700164794922 -258.49999999999994 L 54.99700164794922 -253.99999999999994 L 54.99700164794922 -248.49999999999994 L 49.99700164794922 -248.49999999999994 L 49.99700164794922 -245.75999450683588 L 49.99700164794922 -238.49999999999994 L 54.99700164794922 -238.49999999999994 L 54.99700164794922 -229.37600708007807 L 54.99700164794922 -228.49999999999994 L 49.99700164794922 -228.49999999999994 L 49.99700164794922 -220.99999999999994 L 32.768001556396484 -220.99999999999994 L 19.996999740600586 -220.99999999999994 L 9.996999740600586 -220.99999999999994 L 0 -220.99999999999994 L -0.003000000026077032 -220.99999999999994 L -10.003000259399414 -220.99999999999994 L -20.003000259399414 -220.99999999999994 L -30.003000259399414 -220.99999999999994 L -32.768001556396484 -220.99999999999994 L -60.00299835205078 -220.99999999999994 L -60.00299835205078 -228.49999999999994 L -65.00299835205078 -228.49999999999994 L -65.00299835205078 -229.37600708007807 L -65.00299835205078 -238.49999999999994 L -60.00299835205078 -238.49999999999994 L -60.00299835205078 -248.49999999999994 L -65.00299835205078 -248.49999999999994 L -65.00299835205078 -253.99999999999994 L -65.00299835205078 -258.49999999999994 L -60.00299835205078 -258.49999999999994 L -60.00299835205078 -262.1440124511718 L -60.00299835205078 -265.99999999999994 L -50.00299835205078 -265.99999999999994 L -50.00299835205078 -262.1440124511718 L -50.00299835205078 -260.99999999999994 L -40.00299835205078 -260.99999999999994 L -40.00299835205078 -262.1440124511718 L -40.00299835205078 -265.99999999999994 L -32.768001556396484 -265.99999999999994 L -30.003000259399414 -265.99999999999994 L -30.003000259399414 -262.1440124511718 L -30.003000259399414 -260.99999999999994 L -20.003000259399414 -260.99999999999994 L -20.003000259399414 -262.1440124511718 L -20.003000259399414 -265.99999999999994 L -10.003000259399414 -265.99999999999994 L -10.003000259399414 -262.1440124511718 L -10.003000259399414 -260.99999999999994 L -0.003000000026077032 -260.99999999999994 L -0.003000000026077032 -262.1440124511718 L -0.003000000026077032 -265.99999999999994 L 0 -265.99999999999994 L 9.996999740600586 -265.99999999999994 L 9.996999740600586 -262.1440124511718 L 9.996999740600586 -260.99999999999994 L 19.996999740600586 -260.99999999999994 L 19.996999740600586 -262.1440124511718 L 19.996999740600586 -265.99999999999994 L 29.996999740600586 -265.99999999999994 L 29.996999740600586 -262.1440124511718 L 29.996999740600586 -260.99999999999994 L 32.768001556396484 -260.99999999999994 L 39.99700164794922 -260.99999999999994 L 39.99700164794922 -262.1440124511718 L 39.99700164794922 -265.99999999999994 L 49.99700164794922 -265.99999999999994 M 418 -149.78500366210935 L 413 -149.78500366210935 L 413 -137.5950012207031 L 418 -137.5950012207031 L 418 -131.0720062255859 L 418 -125.40499877929685 L 413 -125.40499877929685 L 413 -113.2149963378906 L 418 -113.2149963378906 L 418 -101.02500152587888 L 413 -101.02500152587888 L 413 -88.83499908447264 L 418 -88.83499908447264 L 418 -76.64499664306639 L 413 -76.64499664306639 L 413 -64.45500183105467 L 418 -64.45500183105467 L 418 -52.26499938964842 L 413 -52.26499938964842 L 413 -40.075000762939446 L 418 -40.075000762939446 L 418 -27.88500022888183 L 413 -27.88500022888183 L 413 -13.999999999999996 L 399.114990234375 -13.999999999999996 L 399.114990234375 -8.999999999999998 L 393.21600341796875 -8.999999999999998 L 386.92498779296875 -8.999999999999998 L 386.92498779296875 -13.999999999999996 L 374.7349853515625 -13.999999999999996 L 374.7349853515625 -8.999999999999998 L 362.5450134277344 -8.999999999999998 L 362.5450134277344 -13.999999999999996 L 350.3550109863281 -13.999999999999996 L 350.3550109863281 -8.999999999999998 L 338.1650085449219 -8.999999999999998 L 338.1650085449219 -13.999999999999996 L 327.67999267578125 -13.999999999999996 L 325.9750061035156 -13.999999999999996 L 325.9750061035156 -8.999999999999998 L 313.7850036621094 -8.999999999999998 L 313.7850036621094 -13.999999999999996 L 301.5950012207031 -13.999999999999996 L 301.5950012207031 -8.999999999999998 L 289.4049987792969 -8.999999999999998 L 289.4049987792969 -13.999999999999996 L 277.2149963378906 -13.999999999999996 L 277.2149963378906 -8.999999999999998 L 265.0249938964844 -8.999999999999998 L 265.0249938964844 -13.999999999999996 L 262.1440124511719 -13.999999999999996 L 252.8350067138672 -13.999999999999996 L 252.8350067138672 -8.999999999999998 L 240.64500427246094 -8.999999999999998 L 240.64500427246094 -13.999999999999996 L 228.4550018310547 -13.999999999999996 L 228.4550018310547 -8.999999999999998 L 216.26499938964844 -8.999999999999998 L 216.26499938964844 -13.999999999999996 L 204.0749969482422 -13.999999999999996 L 204.0749969482422 -8.999999999999998 L 196.60800170898438 -8.999999999999998 L 191.88499450683594 -8.999999999999998 L 191.88499450683594 -13.999999999999996 L 178 -13.999999999999996 L 178 -27.88500022888183 L 173 -27.88500022888183 L 173 -32.76800155639648 L 173 -40.075000762939446 L 178 -40.075000762939446 L 178 -52.26499938964842 L 173 -52.26499938964842 L 173 -64.45500183105467 L 178 -64.45500183105467 L 178 -65.53600311279295 L 178 -76.64499664306639 L 173 -76.64499664306639 L 173 -88.83499908447264 L 178 -88.83499908447264 L 178 -101.02500152587888 L 173 -101.02500152587888 L 173 -113.2149963378906 L 178 -113.2149963378906 L 178 -125.40499877929685 L 173 -125.40499877929685 L 173 -131.0720062255859 L 173 -137.5950012207031 L 178 -137.5950012207031 L 178 -149.78500366210935 L 173 -149.78500366210935 L 173 -161.9750061035156 L 178 -161.9750061035156 L 178 -174.16499328613278 L 173 -174.16499328613278 L 173 -186.35499572753903 L 178 -186.35499572753903 L 178 -196.60800170898432 L 178 -198.54499816894526 L 173 -198.54499816894526 L 173 -210.7350006103515 L 178 -210.7350006103515 L 178 -222.92500305175776 L 173 -222.92500305175776 L 173 -235.115005493164 L 178 -235.115005493164 L 178 -248.99999999999994 L 191.88499450683594 -248.99999999999994 L 191.88499450683594 -253.99999999999994 L 196.60800170898438 -253.99999999999994 L 204.0749969482422 -253.99999999999994 L 204.0749969482422 -248.99999999999994 L 216.26499938964844 -248.99999999999994 L 216.26499938964844 -253.99999999999994 L 228.4550018310547 -253.99999999999994 L 228.4550018310547 -248.99999999999994 L 240.64500427246094 -248.99999999999994 L 240.64500427246094 -253.99999999999994 L 252.8350067138672 -253.99999999999994 L 252.8350067138672 -248.99999999999994 L 262.1440124511719 -248.99999999999994 L 265.0249938964844 -248.99999999999994 L 265.0249938964844 -253.99999999999994 L 277.2149963378906 -253.99999999999994 L 277.2149963378906 -248.99999999999994 L 289.4049987792969 -248.99999999999994 L 289.4049987792969 -253.99999999999994 L 301.5950012207031 -253.99999999999994 L 301.5950012207031 -248.99999999999994 L 313.7850036621094 -248.99999999999994 L 313.7850036621094 -253.99999999999994 L 325.9750061035156 -253.99999999999994 L 325.9750061035156 -248.99999999999994 L 327.67999267578125 -248.99999999999994 L 338.1650085449219 -248.99999999999994 L 338.1650085449219 -253.99999999999994 L 350.3550109863281 -253.99999999999994 L 350.3550109863281 -248.99999999999994 L 362.5450134277344 -248.99999999999994 L 362.5450134277344 -253.99999999999994 L 374.7349853515625 -253.99999999999994 L 374.7349853515625 -248.99999999999994 L 386.92498779296875 -248.99999999999994 L 386.92498779296875 -253.99999999999994 L 393.21600341796875 -253.99999999999994 L 399.114990234375 -253.99999999999994 L 399.114990234375 -248.99999999999994 L 413 -248.99999999999994 L 413 -235.115005493164 L 418 -235.115005493164 L 418 -222.92500305175776 L 413 -222.92500305175776 L 413 -210.7350006103515 L 418 -210.7350006103515 L 418 -198.54499816894526 L 413 -198.54499816894526 L 413 -186.35499572753903 L 418 -186.35499572753903 L 418 -174.16499328613278 L 413 -174.16499328613278 L 413 -161.9750061035156 L 418 -161.9750061035156 L 418 -149.78500366210935 M 164.9969940185547 -206.49999999999994 L 159.9969940185547 -206.49999999999994 L 159.9969940185547 -196.60800170898432 L 159.9969940185547 -196.49999999999994 L 164.9969940185547 -196.49999999999994 L 164.9969940185547 -186.49999999999997 L 159.9969940185547 -186.49999999999997 L 159.9969940185547 -176.49999999999997 L 164.9969940185547 -176.49999999999997 L 164.9969940185547 -168.99999999999997 L 159.9969940185547 -168.99999999999997 L 131.07200622558594 -168.99999999999997 L 84.99700164794922 -168.99999999999997 L 79.99700164794922 -168.99999999999997 L 79.99700164794922 -176.49999999999997 L 84.99700164794922 -176.49999999999997 L 84.99700164794922 -186.49999999999997 L 79.99700164794922 -186.49999999999997 L 79.99700164794922 -196.49999999999994 L 84.99700164794922 -196.49999999999994 L 84.99700164794922 -196.60800170898432 L 84.99700164794922 -206.49999999999994 L 79.99700164794922 -206.49999999999994 L 79.99700164794922 -212.9920043945312 L 79.99700164794922 -213.99999999999994 L 84.99700164794922 -213.99999999999994 L 87.49700164794922 -213.99999999999994 L 87.49700164794922 -212.9920043945312 L 87.49700164794922 -208.99999999999994 L 97.49700164794922 -208.99999999999994 L 97.49700164794922 -212.9920043945312 L 97.49700164794922 -213.99999999999994 L 98.30400085449219 -213.99999999999994 L 107.49700164794922 -213.99999999999994 L 107.49700164794922 -208.99999999999994 L 117.49700164794922 -208.99999999999994 L 117.49700164794922 -213.99999999999994 L 127.49700164794922 -213.99999999999994 L 127.49700164794922 -208.99999999999994 L 131.07200622558594 -208.99999999999994 L 137.4969940185547 -208.99999999999994 L 137.4969940185547 -213.99999999999994 L 147.4969940185547 -213.99999999999994 L 147.4969940185547 -208.99999999999994 L 157.4969940185547 -208.99999999999994 L 157.4969940185547 -213.99999999999994 L 159.9969940185547 -213.99999999999994 L 164.9969940185547 -213.99999999999994 L 164.9969940185547 -206.49999999999994 M 148.5 -138.99999999999997 L 148.5 -133.99999999999997 L 151 -133.99999999999997 L 151 -131.0720062255859 L 151 -123.99999999999997 L 156 -123.99999999999997 L 156 -113.99999999999997 L 151 -113.99999999999997 L 151 -103.99999999999997 L 156 -103.99999999999997 L 156 -93.99999999999999 L 151 -93.99999999999999 L 151 -83.99999999999999 L 156 -83.99999999999999 L 156 -73.99999999999999 L 151 -73.99999999999999 L 151 -65.53600311279295 L 151 -63.999999999999986 L 156 -63.999999999999986 L 156 -53.999999999999986 L 151 -53.999999999999986 L 151 -43.99999999999999 L 156 -43.99999999999999 L 156 -33.99999999999999 L 151 -33.99999999999999 L 151 -23.999999999999993 L 148.5 -23.999999999999993 L 148.5 -18.999999999999996 L 138.5 -18.999999999999996 L 138.5 -23.999999999999993 L 131.07200622558594 -23.999999999999993 L 128.5 -23.999999999999993 L 128.5 -18.999999999999996 L 118.5 -18.999999999999996 L 118.5 -23.999999999999993 L 108.5 -23.999999999999993 L 108.5 -18.999999999999996 L 98.5 -18.999999999999996 L 98.5 -23.999999999999993 L 98.30400085449219 -23.999999999999993 L 88.5 -23.999999999999993 L 88.5 -18.999999999999996 L 78.5 -18.999999999999996 L 78.5 -23.999999999999993 L 76.00299835205078 -23.999999999999993 L 76.00299835205078 -26.499999999999993 L 76.00299835205078 -32.76800155639648 L 76.00299835205078 -33.99999999999999 L 76.00299835205078 -43.99999999999999 L 76.00299835205078 -46.49999999999999 L 76.00299835205078 -53.999999999999986 L 76.00299835205078 -63.999999999999986 L 76.00299835205078 -65.53600311279295 L 76.00299835205078 -73.99999999999999 L 76.00299835205078 -83.99999999999999 L 76.00299835205078 -93.99999999999999 L 76.00299835205078 -98.30400085449216 L 76.00299835205078 -112.99999999999997 L 76.00299835205078 -131.0720062255859 L 76.00299835205078 -133.99999999999997 L 78.5 -133.99999999999997 L 78.5 -138.99999999999997 L 88.5 -138.99999999999997 L 88.5 -133.99999999999997 L 98.5 -133.99999999999997 L 98.5 -138.99999999999997 L 108.5 -138.99999999999997 L 108.5 -133.99999999999997 L 118.5 -133.99999999999997 L 118.5 -138.99999999999997 L 128.5 -138.99999999999997 L 128.5 -133.99999999999997 L 131.07200622558594 -133.99999999999997 L 138.5 -133.99999999999997 L 138.5 -138.99999999999997 L 148.5 -138.99999999999997 M 61.00299835205078 -101.49999999999997 L 56.00299835205078 -101.49999999999997 L 56.00299835205078 -100.99999999999997 L 56.00299835205078 -98.30400085449216 L 56.00299835205078 -93.99999999999999 L 46.00299835205078 -93.99999999999999 L 36.00299835205078 -93.99999999999999 L 32.768001556396484 -93.99999999999999 L 26.003000259399414 -93.99999999999999 L 16.003000259399414 -93.99999999999999 L 6.002999782562256 -93.99999999999999 L 0 -93.99999999999999 L -3.996999979019165 -93.99999999999999 L -13.996999740600586 -93.99999999999999 L -23.996999740600586 -93.99999999999999 L -32.768001556396484 -93.99999999999999 L -33.99700164794922 -93.99999999999999 L -43.99700164794922 -93.99999999999999 L -53.99700164794922 -93.99999999999999 L -53.99700164794922 -98.30400085449216 L -53.99700164794922 -98.99999999999997 L -53.99700164794922 -101.49999999999997 L -58.99700164794922 -101.49999999999997 L -58.99700164794922 -111.49999999999997 L -53.99700164794922 -111.49999999999997 L -53.99700164794922 -112.99999999999997 L -53.99700164794922 -121.49999999999997 L -58.99700164794922 -121.49999999999997 L -58.99700164794922 -131.0720062255859 L -58.99700164794922 -131.49999999999997 L -53.99700164794922 -131.49999999999997 L -53.99700164794922 -138.99999999999997 L 0 -138.99999999999997 L 56.00299835205078 -138.99999999999997 L 56.00299835205078 -131.49999999999997 L 61.00299835205078 -131.49999999999997 L 61.00299835205078 -131.0720062255859 L 61.00299835205078 -121.49999999999997 L 56.00299835205078 -121.49999999999997 L 56.00299835205078 -114.68800354003903 L 56.00299835205078 -112.99999999999997 L 56.00299835205078 -111.49999999999997 L 61.00299835205078 -111.49999999999997 L 61.00299835205078 -110.99999999999997 L 61.00299835205078 -101.49999999999997 M 61.00299835205078 -68.49999999999999 L 56.00299835205078 -68.49999999999999 L 56.00299835205078 -65.53600311279295 L 56.00299835205078 -58.499999999999986 L 61.00299835205078 -58.499999999999986 L 61.00299835205078 -57.999999999999986 L 61.00299835205078 -49.15200042724608 L 61.00299835205078 -48.499999999999986 L 56.00299835205078 -48.499999999999986 L 56.00299835205078 -47.999999999999986 L 56.00299835205078 -40.99999999999999 L 46.00299835205078 -40.99999999999999 L 46.00299835205078 -45.99999999999999 L 36.00299835205078 -45.99999999999999 L 36.00299835205078 -40.99999999999999 L 32.768001556396484 -40.99999999999999 L 26.003000259399414 -40.99999999999999 L 26.003000259399414 -45.99999999999999 L 16.003000259399414 -45.99999999999999 L 16.003000259399414 -40.99999999999999 L 6.002999782562256 -40.99999999999999 L 6.002999782562256 -45.99999999999999 L 0 -45.99999999999999 L -3.996999979019165 -45.99999999999999 L -3.996999979019165 -44.99999999999999 L -3.996999979019165 -40.99999999999999 L -13.996999740600586 -40.99999999999999 L -13.996999740600586 -44.99999999999999 L -13.996999740600586 -45.99999999999999 L -23.996999740600586 -45.99999999999999 L -23.996999740600586 -44.99999999999999 L -23.996999740600586 -40.99999999999999 L -32.768001556396484 -40.99999999999999 L -33.99700164794922 -40.99999999999999 L -33.99700164794922 -44.99999999999999 L -33.99700164794922 -45.99999999999999 L -43.99700164794922 -45.99999999999999 L -43.99700164794922 -44.99999999999999 L -43.99700164794922 -40.99999999999999 L -53.99700164794922 -40.99999999999999 L -53.99700164794922 -44.99999999999999 L -53.99700164794922 -45.99999999999999 L -53.99700164794922 -48.499999999999986 L -58.99700164794922 -48.499999999999986 L -58.99700164794922 -49.15200042724608 L -58.99700164794922 -58.499999999999986 L -53.99700164794922 -58.499999999999986 L -53.99700164794922 -65.53600311279295 L -53.99700164794922 -68.49999999999999 L -58.99700164794922 -68.49999999999999 L -58.99700164794922 -78.49999999999999 L -53.99700164794922 -78.49999999999999 L -53.99700164794922 -85.99999999999999 L -32.768001556396484 -85.99999999999999 L -23.996999740600586 -85.99999999999999 L -13.996999740600586 -85.99999999999999 L 0 -85.99999999999999 L 6.002999782562256 -85.99999999999999 L 32.768001556396484 -85.99999999999999 L 56.00299835205078 -85.99999999999999 L 56.00299835205078 -78.49999999999999 L 61.00299835205078 -78.49999999999999 L 61.00299835205078 -68.49999999999999 M 54.99700164794922 -175.49999999999997 L 49.99700164794922 -175.49999999999997 L 49.99700164794922 -167.99999999999997 L 0 -167.99999999999997 L -60.00299835205078 -167.99999999999997 L -60.00299835205078 -175.49999999999997 L -65.00299835205078 -175.49999999999997 L -65.00299835205078 -185.49999999999997 L -60.00299835205078 -185.49999999999997 L -60.00299835205078 -193.99999999999994 L -60.00299835205078 -195.49999999999994 L -65.00299835205078 -195.49999999999994 L -65.00299835205078 -196.60800170898432 L -65.00299835205078 -205.49999999999994 L -60.00299835205078 -205.49999999999994 L -60.00299835205078 -212.99999999999994 L -55.00600051879883 -212.99999999999994 L -50.00299835205078 -212.99999999999994 L -40.00299835205078 -212.99999999999994 L -32.768001556396484 -212.99999999999994 L -30.003000259399414 -212.99999999999994 L -20.003000259399414 -212.99999999999994 L -10.003000259399414 -212.99999999999994 L -0.003000000026077032 -212.99999999999994 L 0 -212.99999999999994 L 9.996999740600586 -212.99999999999994 L 19.996999740600586 -212.99999999999994 L 29.996999740600586 -212.99999999999994 L 32.768001556396484 -212.99999999999994 L 39.99700164794922 -212.99999999999994 L 49.99700164794922 -212.99999999999994 L 49.99700164794922 -212.9920043945312 L 49.99700164794922 -207.99999999999994 L 49.99700164794922 -205.49999999999994 L 54.99700164794922 -205.49999999999994 L 54.99700164794922 -196.60800170898432 L 54.99700164794922 -195.49999999999994 L 49.99700164794922 -195.49999999999994 L 49.99700164794922 -193.99999999999994 L 49.99700164794922 -185.49999999999997 L 54.99700164794922 -185.49999999999997 L 54.99700164794922 -175.49999999999997 M -91.49700164794922 -40.99999999999999 L -91.49700164794922 -44.99999999999999 L -91.49700164794922 -45.99999999999999 L -98.30400085449219 -45.99999999999999 L -101.49700164794922 -45.99999999999999 L -101.49700164794922 -44.99999999999999 L -101.49700164794922 -40.99999999999999 L -111.49700164794922 -40.99999999999999 L -111.49700164794922 -44.99999999999999 L -111.49700164794922 -45.99999999999999 L -121.49700164794922 -45.99999999999999 L -121.49700164794922 -44.99999999999999 L -121.49700164794922 -40.99999999999999 L -131.07200622558594 -40.99999999999999 L -131.4969940185547 -40.99999999999999 L -131.4969940185547 -44.99999999999999 L -131.4969940185547 -45.99999999999999 L -141.4969940185547 -45.99999999999999 L -141.4969940185547 -44.99999999999999 L -141.4969940185547 -40.99999999999999 L -151.4969940185547 -40.99999999999999 L -151.4969940185547 -44.99999999999999 L -151.4969940185547 -45.99999999999999 L -161.4969940185547 -45.99999999999999 L -161.4969940185547 -44.99999999999999 L -161.4969940185547 -40.99999999999999 L -168.9969940185547 -40.99999999999999 L -168.9969940185547 -44.99999999999999 L -168.9969940185547 -45.99999999999999 L -168.9969940185547 -48.499999999999986 L -163.9969940185547 -48.499999999999986 L -163.9969940185547 -58.499999999999986 L -168.9969940185547 -58.499999999999986 L -168.9969940185547 -65.53600311279295 L -168.9969940185547 -68.49999999999999 L -163.9969940185547 -68.49999999999999 L -163.9969940185547 -72.49999999999999 L -163.9969940185547 -78.49999999999999 L -168.9969940185547 -78.49999999999999 L -168.9969940185547 -82.49999999999999 L -168.9969940185547 -85.99999999999999 L -163.9969940185547 -85.99999999999999 L -151.4969940185547 -85.99999999999999 L -131.07200622558594 -85.99999999999999 L -111.49700164794922 -85.99999999999999 L -98.30400085449219 -85.99999999999999 L -88.99700164794922 -85.99999999999999 L -83.99700164794922 -85.99999999999999 L -83.99700164794922 -82.49999999999999 L -83.99700164794922 -81.9199981689453 L -83.99700164794922 -78.49999999999999 L -88.99700164794922 -78.49999999999999 L -88.99700164794922 -68.49999999999999 L -83.99700164794922 -68.49999999999999 L -83.99700164794922 -65.53600311279295 L -83.99700164794922 -58.499999999999986 L -88.99700164794922 -58.499999999999986 L -88.99700164794922 -49.15200042724608 L -88.99700164794922 -48.499999999999986 L -83.99700164794922 -48.499999999999986 L -83.99700164794922 -44.99999999999999 L -83.99700164794922 -40.99999999999999 L -88.99700164794922 -40.99999999999999 L -91.49700164794922 -40.99999999999999 M -83.99700164794922 -130.49999999999997 L -88.99700164794922 -130.49999999999997 L -88.99700164794922 -120.49999999999997 L -83.99700164794922 -120.49999999999997 L -83.99700164794922 -114.68800354003903 L -83.99700164794922 -110.49999999999997 L -88.99700164794922 -110.49999999999997 L -88.99700164794922 -100.49999999999997 L -83.99700164794922 -100.49999999999997 L -83.99700164794922 -98.30400085449216 L -83.99700164794922 -92.99999999999999 L -88.99700164794922 -92.99999999999999 L -91.49700164794922 -92.99999999999999 L -91.49700164794922 -97.99999999999997 L -98.30400085449219 -97.99999999999997 L -101.49700164794922 -97.99999999999997 L -101.49700164794922 -92.99999999999999 L -111.49700164794922 -92.99999999999999 L -111.49700164794922 -97.99999999999997 L -121.49700164794922 -97.99999999999997 L -121.49700164794922 -92.99999999999999 L -131.07200622558594 -92.99999999999999 L -131.4969940185547 -92.99999999999999 L -131.4969940185547 -97.99999999999997 L -141.4969940185547 -97.99999999999997 L -141.4969940185547 -92.99999999999999 L -151.4969940185547 -92.99999999999999 L -151.4969940185547 -97.99999999999997 L -161.4969940185547 -97.99999999999997 L -161.4969940185547 -92.99999999999999 L -163.9969940185547 -92.99999999999999 L -168.9969940185547 -92.99999999999999 L -168.9969940185547 -98.30400085449216 L -168.9969940185547 -100.49999999999997 L -163.9969940185547 -100.49999999999997 L -163.9969940185547 -110.49999999999997 L -168.9969940185547 -110.49999999999997 L -168.9969940185547 -120.49999999999997 L -163.9969940185547 -120.49999999999997 L -163.9969940185547 -130.49999999999997 L -168.9969940185547 -130.49999999999997 L -168.9969940185547 -131.0720062255859 L -168.9969940185547 -137.99999999999997 L -131.07200622558594 -137.99999999999997 L -83.99700164794922 -137.99999999999997 L -83.99700164794922 -131.0720062255859 L -83.99700164794922 -130.49999999999997 M 141.0030059814453 -86.50299835205077 L 131.07200622558594 -86.50299835205077 L 105.99800109863281 -86.50299835205077 L 105.99800109863281 -83.99999999999999 L 105.99800109863281 -73.99999999999999 L 105.99800109863281 -71.4980010986328 L 131.07200622558594 -71.4980010986328 L 141.0030059814453 -71.4980010986328 L 141.0030059814453 -86.50299835205077 M 6.002999782562256 -102.00299835205075 L 0 -102.00299835205075 L -3.996999979019165 -102.00299835205075 L -13.996999740600586 -102.00299835205075 L -32.768001556396484 -102.00299835205075 L -33.99700164794922 -102.00299835205075 L -47.999000549316406 -102.00299835205075 L -47.999000549316406 -98.99999999999997 L -47.999000549316406 -98.99800109863278 L -43.99700164794922 -98.99800109863278 L -33.99700164794922 -98.99800109863278 L -32.768001556396484 -98.99800109863278 L -23.996999740600586 -98.99800109863278 L -13.996999740600586 -98.99800109863278 L -3.996999979019165 -98.99800109863278 L 0 -98.99800109863278 L 6.002999782562256 -98.99800109863278 L 16.003000259399414 -98.99800109863278 L 26.003000259399414 -98.99800109863278 L 32.768001556396484 -98.99800109863278 L 36.00299835205078 -98.99800109863278 L 46.00299835205078 -98.99800109863278 L 52.00600051879883 -98.99800109863278 L 52.00600051879883 -100.99999999999997 L 52.00600051879883 -101.49999999999997 L 52.00600051879883 -102.00299835205075 L 32.768001556396484 -102.00299835205075 L 26.003000259399414 -102.00299835205075 L 16.003000259399414 -102.00299835205075 L 6.002999782562256 -102.00299835205075 M -0.003000000026077032 -204.99800109863276 L 0 -204.99800109863276 L 9.996999740600586 -204.99800109863276 L 32.768001556396484 -204.99800109863276 L 44.999000549316406 -204.99800109863276 L 44.999000549316406 -207.99999999999994 L 44.999000549316406 -208.00300598144526 L 39.99700164794922 -208.00300598144526 L 32.768001556396484 -208.00300598144526 L 29.996999740600586 -208.00300598144526 L 19.996999740600586 -208.00300598144526 L 9.996999740600586 -208.00300598144526 L 0 -208.00300598144526 L -0.003000000026077032 -208.00300598144526 L -10.003000259399414 -208.00300598144526 L -20.003000259399414 -208.00300598144526 L -30.003000259399414 -208.00300598144526 L -32.768001556396484 -208.00300598144526 L -40.00299835205078 -208.00300598144526 L -50.00299835205078 -208.00300598144526 L -55.00600051879883 -208.00300598144526 L -55.00600051879883 -205.49999999999994 L -55.00600051879883 -204.99800109863276 L -32.768001556396484 -204.99800109863276 L -30.003000259399414 -204.99800109863276 L -20.003000259399414 -204.99800109863276 L -10.003000259399414 -204.99800109863276 L -0.003000000026077032 -204.99800109863276 M -153.0030059814453 -204.49800109863276 L -131.07200622558594 -204.49800109863276 L -127.0009994506836 -204.49800109863276 L -127.0009994506836 -219.50300598144526 L -131.07200622558594 -219.50300598144526 L -153.0030059814453 -219.50300598144526 L -162.00599670410156 -219.50300598144526 L -162.00599670410156 -204.49800109863276 L -153.0030059814453 -204.49800109863276 z" fill="none" stroke="rgb(255,0,0)" stroke-width="0.001mm" />
</svg>